<?xml version="1.0" standalone="no"?>
<!DOCTYPE svg PUBLIC "-//W3C//DTD SVG 20010904//EN"
 "http://www.w3.org/TR/2001/REC-SVG-20010904/DTD/svg10.dtd">
<svg version="1.0" xmlns="http://www.w3.org/2000/svg"
 width="512.000000pt" height="512.000000pt" viewBox="0 0 512.000000 512.000000"
 preserveAspectRatio="xMidYMid meet">
<metadata>
Created by potrace 1.11, written by Peter Selinger 2001-2013
</metadata>
<g transform="translate(0.000000,512.000000) scale(0.100000,-0.100000)"
fill="#000000" stroke="none">
<path d="M2300 4899 c-346 -42 -674 -155 -964 -332 -546 -335 -932 -875 -1070
-1497 -41 -188 -51 -282 -50 -510 0 -245 15 -376 69 -585 179 -698 683 -1289
1340 -1570 210 -90 379 -137 630 -177 109 -17 495 -17 610 1 377 56 694 174
980 364 274 183 481 386 655 642 110 163 173 281 245 458 103 254 153 497 162
792 11 349 -39 632 -168 958 -207 520 -618 965 -1132 1223 -179 91 -442 176
-657 214 -98 17 -173 23 -350 25 -124 2 -259 0 -300 -6z m1300 -1186 c28 -15
65 -43 81 -62 59 -72 59 -66 59 -856 0 -819 2 -793 -75 -870 -77 -78 -39 -75
-979 -75 l-831 0 -230 -230 c-126 -126 -233 -230 -237 -230 -5 0 -8 488 -8
1085 0 613 4 1085 9 1085 5 0 11 14 15 31 7 38 81 115 119 124 15 4 30 11 33
16 3 5 430 9 999 9 l993 0 52 -27z"/>
<path d="M1860 3145 l0 -115 700 0 700 0 0 115 0 115 -700 0 -700 0 0 -115z"/>
<path d="M1860 2795 l0 -115 700 0 700 0 0 115 0 115 -700 0 -700 0 0 -115z"/>
<path d="M1860 2445 l0 -115 465 0 465 0 0 115 0 115 -465 0 -465 0 0 -115z"/>
</g>
</svg>
